<?xml version="1.0" encoding="UTF-8"?>
<svg xmlns="http://www.w3.org/2000/svg"
     xmlns:xlink="http://www.w3.org/1999/xlink"
     xmlns:gadfly="http://www.gadflyjl.org/ns"
     version="1.2"
     width="203.2mm" height="203.2mm" viewBox="0 0 203.2 203.2"
     stroke="none"
     fill="#000000"
     stroke-width="0.3"
     font-size="3.88"
>
<g class="plotroot xscalable yscalable" id="img-2535ce8b-1">
  <g font-size="3.88" font-family="'PT Sans','Helvetica Neue','Helvetica',sans-serif" fill="#564A55" stroke="#000000" stroke-opacity="0.000" id="img-2535ce8b-2">
    <g transform="translate(159.22,191.59)">
      <g class="primitive">
        <text text-anchor="middle" dy="0.6em">Value</text>
      </g>
    </g>
  </g>
  <g class="guide xlabels" font-size="2.82" font-family="'PT Sans Caption','Helvetica Neue','Helvetica',sans-serif" fill="#6C606B" id="img-2535ce8b-3">
    <g transform="translate(122.23,184.91)">
      <g class="primitive">
        <text text-anchor="middle" dy="0.6em">-2</text>
      </g>
    </g>
    <g transform="translate(140.72,184.91)">
      <g class="primitive">
        <text text-anchor="middle" dy="0.6em">-1</text>
      </g>
    </g>
    <g transform="translate(159.22,184.91)">
      <g class="primitive">
        <text text-anchor="middle" dy="0.6em">0</text>
      </g>
    </g>
    <g transform="translate(177.71,184.91)">
      <g class="primitive">
        <text text-anchor="middle" dy="0.6em">1</text>
      </g>
    </g>
    <g transform="translate(196.2,184.91)">
      <g class="primitive">
        <text text-anchor="middle" dy="0.6em">2</text>
      </g>
    </g>
  </g>
  <g clip-path="url(#img-2535ce8b-4)">
    <g id="img-2535ce8b-5">
      <g pointer-events="visible" opacity="1" fill="#000000" fill-opacity="0.000" stroke="#000000" stroke-opacity="0.000" class="guide background" id="img-2535ce8b-6">
        <g transform="translate(159.22,165)">
          <path d="M-38.98,-18.92 L 38.98 -18.92 38.98 18.92 -38.98 18.92 z" class="primitive"/>
        </g>
      </g>
      <g class="guide ygridlines xfixed" stroke-dasharray="0.5,0.5" stroke-width="0.2" stroke="#D0D0E0" id="img-2535ce8b-7">
        <g transform="translate(159.22,181.91)">
          <path fill="none" d="M-38.98,0 L 38.98 0" class="primitive"/>
        </g>
        <g transform="translate(159.22,170.64)">
          <path fill="none" d="M-38.98,0 L 38.98 0" class="primitive"/>
        </g>
        <g transform="translate(159.22,159.36)">
          <path fill="none" d="M-38.98,0 L 38.98 0" class="primitive"/>
        </g>
        <g transform="translate(159.22,148.08)">
          <path fill="none" d="M-38.98,0 L 38.98 0" class="primitive"/>
        </g>
      </g>
      <g class="guide xgridlines yfixed" stroke-dasharray="0.5,0.5" stroke-width="0.2" stroke="#D0D0E0" id="img-2535ce8b-8">
        <g transform="translate(122.23,165)">
          <path fill="none" d="M0,-18.92 L 0 18.92" class="primitive"/>
        </g>
        <g transform="translate(140.72,165)">
          <path fill="none" d="M0,-18.92 L 0 18.92" class="primitive"/>
        </g>
        <g transform="translate(159.22,165)">
          <path fill="none" d="M0,-18.92 L 0 18.92" class="primitive"/>
        </g>
        <g transform="translate(177.71,165)">
          <path fill="none" d="M0,-18.92 L 0 18.92" class="primitive"/>
        </g>
        <g transform="translate(196.2,165)">
          <path fill="none" d="M0,-18.92 L 0 18.92" class="primitive"/>
        </g>
      </g>
      <g class="plotpanel" id="img-2535ce8b-9">
        <metadata>
          <boundingbox value="120.23166666666665mm 146.07833333333332mm 77.96833333333333mm 37.83666666666666mm"/>
          <unitbox value="-2.108154390392285 1.588661215643779 4.21630878078457 -1.6773224312875579"/>
        </metadata>
        <g stroke-width="0.3" fill="#000000" fill-opacity="0.000" class="geometry" id="img-2535ce8b-10">
          <g class="color_1" stroke-dasharray="none" stroke="#00BFFF" id="img-2535ce8b-11">
            <g transform="translate(159.22,172.91)">
              <path fill="none" d="M-23.07,8.99 L -22.89 8.99 -22.71 8.99 -22.53 8.98 -22.35 8.98 -22.17 8.98 -21.99 8.98 -21.81 8.98 -21.62 8.98 -21.44 8.97 -21.26 8.97 -21.08 8.97 -20.9 8.96 -20.72 8.96 -20.54 8.95 -20.36 8.95 -20.18 8.94 -20 8.93 -19.81 8.92 -19.63 8.92 -19.45 8.91 -19.27 8.9 -19.09 8.88 -18.91 8.87 -18.73 8.86 -18.55 8.84 -18.37 8.82 -18.19 8.8 -18.01 8.78 -17.82 8.76 -17.64 8.74 -17.46 8.71 -17.28 8.68 -17.1 8.65 -16.92 8.61 -16.74 8.58 -16.56 8.54 -16.38 8.49 -16.2 8.44 -16.01 8.39 -15.83 8.34 -15.65 8.28 -15.47 8.21 -15.29 8.14 -15.11 8.07 -14.93 7.99 -14.75 7.91 -14.57 7.81 -14.39 7.72 -14.21 7.61 -14.02 7.5 -13.84 7.38 -13.66 7.26 -13.48 7.12 -13.3 6.98 -13.12 6.83 -12.94 6.67 -12.76 6.5 -12.58 6.33 -12.4 6.14 -12.21 5.94 -12.03 5.73 -11.85 5.51 -11.67 5.28 -11.49 5.04 -11.31 4.78 -11.13 4.52 -10.95 4.24 -10.77 3.95 -10.59 3.65 -10.4 3.33 -10.22 3.01 -10.04 2.67 -9.86 2.31 -9.68 1.95 -9.5 1.57 -9.32 1.18 -9.14 0.78 -8.96 0.36 -8.78 -0.06 -8.6 -0.5 -8.41 -0.95 -8.23 -1.41 -8.05 -1.88 -7.87 -2.37 -7.69 -2.86 -7.51 -3.36 -7.33 -3.87 -7.15 -4.38 -6.97 -4.91 -6.79 -5.44 -6.6 -5.97 -6.42 -6.51 -6.24 -7.06 -6.06 -7.6 -5.88 -8.15 -5.7 -8.7 -5.52 -9.25 -5.34 -9.8 -5.16 -10.34 -4.98 -10.88 -4.8 -11.42 -4.61 -11.94 -4.43 -12.47 -4.25 -12.98 -4.07 -13.48 -3.89 -13.98 -3.71 -14.45 -3.53 -14.92 -3.35 -15.37 -3.17 -15.81 -2.99 -16.23 -2.8 -16.63 -2.62 -17.01 -2.44 -17.37 -2.26 -17.71 -2.08 -18.03 -1.9 -18.32 -1.72 -18.59 -1.54 -18.84 -1.36 -19.06 -1.18 -19.25 -1 -19.42 -0.81 -19.56 -0.63 -19.67 -0.45 -19.75 -0.27 -19.81 -0.09 -19.84 0.09 -19.84 0.27 -19.81 0.45 -19.75 0.63 -19.67 0.81 -19.56 1 -19.42 1.18 -19.25 1.36 -19.06 1.54 -18.84 1.72 -18.59 1.9 -18.32 2.08 -18.03 2.26 -17.71 2.44 -17.37 2.62 -17.01 2.8 -16.63 2.99 -16.23 3.17 -15.81 3.35 -15.37 3.53 -14.92 3.71 -14.45 3.89 -13.98 4.07 -13.48 4.25 -12.98 4.43 -12.47 4.61 -11.94 4.8 -11.42 4.98 -10.88 5.16 -10.34 5.34 -9.8 5.52 -9.25 5.7 -8.7 5.88 -8.15 6.06 -7.6 6.24 -7.06 6.42 -6.51 6.6 -5.97 6.79 -5.44 6.97 -4.91 7.15 -4.38 7.33 -3.87 7.51 -3.36 7.69 -2.86 7.87 -2.37 8.05 -1.88 8.23 -1.41 8.41 -0.95 8.6 -0.5 8.78 -0.06 8.96 0.36 9.14 0.78 9.32 1.18 9.5 1.57 9.68 1.95 9.86 2.31 10.04 2.67 10.22 3.01 10.4 3.33 10.59 3.65 10.77 3.95 10.95 4.24 11.13 4.52 11.31 4.78 11.49 5.04 11.67 5.28 11.85 5.51 12.03 5.73 12.21 5.94 12.4 6.14 12.58 6.33 12.76 6.5 12.94 6.67 13.12 6.83 13.3 6.98 13.48 7.12 13.66 7.26 13.84 7.38 14.02 7.5 14.21 7.61 14.39 7.72 14.57 7.81 14.75 7.91 14.93 7.99 15.11 8.07 15.29 8.14 15.47 8.21 15.65 8.28 15.83 8.34 16.01 8.39 16.2 8.44 16.38 8.49 16.56 8.54 16.74 8.58 16.92 8.61 17.1 8.65 17.28 8.68 17.46 8.71 17.64 8.74 17.82 8.76 18.01 8.78 18.19 8.8 18.37 8.82 18.55 8.84 18.73 8.86 18.91 8.87 19.09 8.88 19.27 8.9 19.45 8.91 19.63 8.92 19.81 8.92 20 8.93 20.18 8.94 20.36 8.95 20.54 8.95 20.72 8.96 20.9 8.96 21.08 8.97 21.26 8.97 21.44 8.97 21.62 8.98 21.81 8.98 21.99 8.98 22.17 8.98 22.35 8.98 22.53 8.98 22.71 8.99 22.89 8.99 23.07 8.99" class="primitive"/>
            </g>
          </g>
        </g>
      </g>
    </g>
  </g>
  <g class="guide ylabels" font-size="2.82" font-family="'PT Sans Caption','Helvetica Neue','Helvetica',sans-serif" fill="#6C606B" id="img-2535ce8b-12">
    <g transform="translate(119.23,181.91)">
      <g class="primitive">
        <text text-anchor="end" dy="0.35em">0.0</text>
      </g>
    </g>
    <g transform="translate(119.23,170.64)">
      <g class="primitive">
        <text text-anchor="end" dy="0.35em">0.5</text>
      </g>
    </g>
    <g transform="translate(119.23,159.36)">
      <g class="primitive">
        <text text-anchor="end" dy="0.35em">1.0</text>
      </g>
    </g>
    <g transform="translate(119.23,148.08)">
      <g class="primitive">
        <text text-anchor="end" dy="0.35em">1.5</text>
      </g>
    </g>
  </g>
  <g font-size="3.88" font-family="'PT Sans','Helvetica Neue','Helvetica',sans-serif" fill="#564A55" stroke="#000000" stroke-opacity="0.000" id="img-2535ce8b-13">
    <g transform="translate(110.41,163)">
      <g class="primitive">
        <text text-anchor="middle" dy="0.35em" transform="rotate(-90,0, 2)">Density</text>
      </g>
    </g>
  </g>
  <g font-size="3.88" font-family="'PT Sans','Helvetica Neue','Helvetica',sans-serif" fill="#564A55" stroke="#000000" stroke-opacity="0.000" id="img-2535ce8b-14">
    <g transform="translate(159.22,140.47)">
      <g class="primitive">
        <text text-anchor="middle" dy="0.6em">lp</text>
      </g>
    </g>
  </g>
</g>
<g class="plotroot xscalable yscalable" id="img-2535ce8b-15">
  <g font-size="3.88" font-family="'PT Sans','Helvetica Neue','Helvetica',sans-serif" fill="#564A55" stroke="#000000" stroke-opacity="0.000" id="img-2535ce8b-16">
    <g transform="translate(56.44,191.59)">
      <g class="primitive">
        <text text-anchor="middle" dy="0.6em">Iteration</text>
      </g>
    </g>
  </g>
  <g class="guide xlabels" font-size="2.82" font-family="'PT Sans Caption','Helvetica Neue','Helvetica',sans-serif" fill="#6C606B" id="img-2535ce8b-17">
    <g transform="translate(18.28,184.91)">
      <g class="primitive">
        <text text-anchor="middle" dy="0.6em">0</text>
      </g>
    </g>
    <g transform="translate(37.36,184.91)">
      <g class="primitive">
        <text text-anchor="middle" dy="0.6em">50</text>
      </g>
    </g>
    <g transform="translate(56.44,184.91)">
      <g class="primitive">
        <text text-anchor="middle" dy="0.6em">100</text>
      </g>
    </g>
    <g transform="translate(75.52,184.91)">
      <g class="primitive">
        <text text-anchor="middle" dy="0.6em">150</text>
      </g>
    </g>
    <g transform="translate(94.6,184.91)">
      <g class="primitive">
        <text text-anchor="middle" dy="0.6em">200</text>
      </g>
    </g>
  </g>
  <g clip-path="url(#img-2535ce8b-18)">
    <g id="img-2535ce8b-19">
      <g pointer-events="visible" opacity="1" fill="#000000" fill-opacity="0.000" stroke="#000000" stroke-opacity="0.000" class="guide background" id="img-2535ce8b-20">
        <g transform="translate(56.44,165)">
          <path d="M-40.16,-18.92 L 40.16 -18.92 40.16 18.92 -40.16 18.92 z" class="primitive"/>
        </g>
      </g>
      <g class="guide ygridlines xfixed" stroke-dasharray="0.5,0.5" stroke-width="0.2" stroke="#D0D0E0" id="img-2535ce8b-21">
        <g transform="translate(56.44,165)">
          <path fill="none" d="M-40.16,0 L 40.16 0" class="primitive"/>
        </g>
      </g>
      <g class="guide xgridlines yfixed" stroke-dasharray="0.5,0.5" stroke-width="0.2" stroke="#D0D0E0" id="img-2535ce8b-22">
        <g transform="translate(18.28,165)">
          <path fill="none" d="M0,-18.92 L 0 18.92" class="primitive"/>
        </g>
        <g transform="translate(37.36,165)">
          <path fill="none" d="M0,-18.92 L 0 18.92" class="primitive"/>
        </g>
        <g transform="translate(56.44,165)">
          <path fill="none" d="M0,-18.92 L 0 18.92" class="primitive"/>
        </g>
        <g transform="translate(75.52,165)">
          <path fill="none" d="M0,-18.92 L 0 18.92" class="primitive"/>
        </g>
        <g transform="translate(94.6,165)">
          <path fill="none" d="M0,-18.92 L 0 18.92" class="primitive"/>
        </g>
      </g>
      <g class="plotpanel" id="img-2535ce8b-23">
        <metadata>
          <boundingbox value="16.284999999999997mm 146.07833333333332mm 80.315mm 37.83666666666666mm"/>
          <unitbox value="-5.241433532071022 1.1182149541917052 210.48286706414206 -2.2364299083834105"/>
        </metadata>
        <g stroke-width="0.3" fill="#000000" fill-opacity="0.000" class="geometry" id="img-2535ce8b-24">
          <g class="color_1" stroke-dasharray="none" stroke="#00BFFF" id="img-2535ce8b-25">
            <g transform="translate(56.63,165)">
              <path fill="none" d="M-37.97,0 L -37.59 0 -37.2 0 -36.82 0 -36.44 0 -36.06 0 -35.68 0 -35.3 0 -34.91 0 -34.53 0 -34.15 0 -33.77 0 -33.39 0 -33.01 0 -32.62 0 -32.24 0 -31.86 0 -31.48 0 -31.1 0 -30.72 0 -30.34 0 -29.95 0 -29.57 0 -29.19 0 -28.81 0 -28.43 0 -28.05 0 -27.66 0 -27.28 0 -26.9 0 -26.52 0 -26.14 0 -25.76 0 -25.37 0 -24.99 0 -24.61 0 -24.23 0 -23.85 0 -23.47 0 -23.09 0 -22.7 0 -22.32 0 -21.94 0 -21.56 0 -21.18 0 -20.8 0 -20.41 0 -20.03 0 -19.65 0 -19.27 0 -18.89 0 -18.51 0 -18.12 0 -17.74 0 -17.36 0 -16.98 0 -16.6 0 -16.22 0 -15.84 0 -15.45 0 -15.07 0 -14.69 0 -14.31 0 -13.93 0 -13.55 0 -13.16 0 -12.78 0 -12.4 0 -12.02 0 -11.64 0 -11.26 0 -10.87 0 -10.49 0 -10.11 0 -9.73 0 -9.35 0 -8.97 0 -8.59 0 -8.2 0 -7.82 0 -7.44 0 -7.06 0 -6.68 0 -6.3 0 -5.91 0 -5.53 0 -5.15 0 -4.77 0 -4.39 0 -4.01 0 -3.62 0 -3.24 0 -2.86 0 -2.48 0 -2.1 0 -1.72 0 -1.34 0 -0.95 0 -0.57 0 -0.19 0 0.19 0 0.57 0 0.95 0 1.34 0 1.72 0 2.1 0 2.48 0 2.86 0 3.24 0 3.62 0 4.01 0 4.39 0 4.77 0 5.15 0 5.53 0 5.91 0 6.3 0 6.68 0 7.06 0 7.44 0 7.82 0 8.2 0 8.59 0 8.97 0 9.35 0 9.73 0 10.11 0 10.49 0 10.87 0 11.26 0 11.64 0 12.02 0 12.4 0 12.78 0 13.16 0 13.55 0 13.93 0 14.31 0 14.69 0 15.07 0 15.45 0 15.84 0 16.22 0 16.6 0 16.98 0 17.36 0 17.74 0 18.12 0 18.51 0 18.89 0 19.27 0 19.65 0 20.03 0 20.41 0 20.8 0 21.18 0 21.56 0 21.94 0 22.32 0 22.7 0 23.09 0 23.47 0 23.85 0 24.23 0 24.61 0 24.99 0 25.37 0 25.76 0 26.14 0 26.52 0 26.9 0 27.28 0 27.66 0 28.05 0 28.43 0 28.81 0 29.19 0 29.57 0 29.95 0 30.34 0 30.72 0 31.1 0 31.48 0 31.86 0 32.24 0 32.62 0 33.01 0 33.39 0 33.77 0 34.15 0 34.53 0 34.91 0 35.3 0 35.68 0 36.06 0 36.44 0 36.82 0 37.2 0 37.59 0 37.97 0" class="primitive"/>
            </g>
          </g>
        </g>
      </g>
    </g>
  </g>
  <g class="guide ylabels" font-size="2.82" font-family="'PT Sans Caption','Helvetica Neue','Helvetica',sans-serif" fill="#6C606B" id="img-2535ce8b-26">
    <g transform="translate(15.28,165)">
      <g class="primitive">
        <text text-anchor="end" dy="0.35em">0</text>
      </g>
    </g>
  </g>
  <g font-size="3.88" font-family="'PT Sans','Helvetica Neue','Helvetica',sans-serif" fill="#564A55" stroke="#000000" stroke-opacity="0.000" id="img-2535ce8b-27">
    <g transform="translate(8.81,163)">
      <g class="primitive">
        <text text-anchor="middle" dy="0.35em" transform="rotate(-90,0, 2)">Value</text>
      </g>
    </g>
  </g>
  <g font-size="3.88" font-family="'PT Sans','Helvetica Neue','Helvetica',sans-serif" fill="#564A55" stroke="#000000" stroke-opacity="0.000" id="img-2535ce8b-28">
    <g transform="translate(56.44,140.47)">
      <g class="primitive">
        <text text-anchor="middle" dy="0.6em">lp</text>
      </g>
    </g>
  </g>
</g>
<g class="plotroot xscalable yscalable" id="img-2535ce8b-29">
  <g font-size="3.88" font-family="'PT Sans','Helvetica Neue','Helvetica',sans-serif" fill="#564A55" stroke="#000000" stroke-opacity="0.000" id="img-2535ce8b-30">
    <g transform="translate(159.22,123.85)">
      <g class="primitive">
        <text text-anchor="middle" dy="0.6em">Value</text>
      </g>
    </g>
  </g>
  <g class="guide xlabels" font-size="2.82" font-family="'PT Sans Caption','Helvetica Neue','Helvetica',sans-serif" fill="#6C606B" id="img-2535ce8b-31">
    <g transform="translate(122.23,117.18)">
      <g class="primitive">
        <text text-anchor="middle" dy="0.6em">-2</text>
      </g>
    </g>
    <g transform="translate(140.72,117.18)">
      <g class="primitive">
        <text text-anchor="middle" dy="0.6em">0</text>
      </g>
    </g>
    <g transform="translate(159.22,117.18)">
      <g class="primitive">
        <text text-anchor="middle" dy="0.6em">2</text>
      </g>
    </g>
    <g transform="translate(177.71,117.18)">
      <g class="primitive">
        <text text-anchor="middle" dy="0.6em">4</text>
      </g>
    </g>
    <g transform="translate(196.2,117.18)">
      <g class="primitive">
        <text text-anchor="middle" dy="0.6em">6</text>
      </g>
    </g>
  </g>
  <g clip-path="url(#img-2535ce8b-32)">
    <g id="img-2535ce8b-33">
      <g pointer-events="visible" opacity="1" fill="#000000" fill-opacity="0.000" stroke="#000000" stroke-opacity="0.000" class="guide background" id="img-2535ce8b-34">
        <g transform="translate(159.22,97.26)">
          <path d="M-38.98,-18.92 L 38.98 -18.92 38.98 18.92 -38.98 18.92 z" class="primitive"/>
        </g>
      </g>
      <g class="guide ygridlines xfixed" stroke-dasharray="0.5,0.5" stroke-width="0.2" stroke="#D0D0E0" id="img-2535ce8b-35">
        <g transform="translate(159.22,114.18)">
          <path fill="none" d="M-38.98,0 L 38.98 0" class="primitive"/>
        </g>
        <g transform="translate(159.22,107.41)">
          <path fill="none" d="M-38.98,0 L 38.98 0" class="primitive"/>
        </g>
        <g transform="translate(159.22,100.65)">
          <path fill="none" d="M-38.98,0 L 38.98 0" class="primitive"/>
        </g>
        <g transform="translate(159.22,93.88)">
          <path fill="none" d="M-38.98,0 L 38.98 0" class="primitive"/>
        </g>
        <g transform="translate(159.22,87.11)">
          <path fill="none" d="M-38.98,0 L 38.98 0" class="primitive"/>
        </g>
        <g transform="translate(159.22,80.34)">
          <path fill="none" d="M-38.98,0 L 38.98 0" class="primitive"/>
        </g>
      </g>
      <g class="guide xgridlines yfixed" stroke-dasharray="0.5,0.5" stroke-width="0.2" stroke="#D0D0E0" id="img-2535ce8b-36">
        <g transform="translate(122.23,97.26)">
          <path fill="none" d="M0,-18.92 L 0 18.92" class="primitive"/>
        </g>
        <g transform="translate(140.72,97.26)">
          <path fill="none" d="M0,-18.92 L 0 18.92" class="primitive"/>
        </g>
        <g transform="translate(159.22,97.26)">
          <path fill="none" d="M0,-18.92 L 0 18.92" class="primitive"/>
        </g>
        <g transform="translate(177.71,97.26)">
          <path fill="none" d="M0,-18.92 L 0 18.92" class="primitive"/>
        </g>
        <g transform="translate(196.2,97.26)">
          <path fill="none" d="M0,-18.92 L 0 18.92" class="primitive"/>
        </g>
      </g>
      <g class="plotpanel" id="img-2535ce8b-37">
        <metadata>
          <boundingbox value="120.23166666666665mm 78.34499999999998mm 77.96833333333333mm 37.83666666666666mm"/>
          <unitbox value="-2.21630878078457 0.5295537385479263 8.43261756156914 -0.5591074770958526"/>
        </metadata>
        <g stroke-width="0.3" fill="#000000" fill-opacity="0.000" class="geometry" id="img-2535ce8b-38">
          <g class="color_1" stroke-dasharray="none" stroke="#00BFFF" id="img-2535ce8b-39">
            <g transform="translate(161.57,102.71)">
              <path fill="none" d="M-27.17,11.46 L -26.96 11.46 -26.75 11.46 -26.53 11.45 -26.32 11.45 -26.11 11.44 -25.89 11.43 -25.68 11.42 -25.47 11.4 -25.25 11.38 -25.04 11.35 -24.83 11.31 -24.61 11.27 -24.4 11.21 -24.19 11.14 -23.98 11.05 -23.76 10.94 -23.55 10.82 -23.34 10.66 -23.12 10.48 -22.91 10.26 -22.7 10 -22.48 9.7 -22.27 9.35 -22.06 8.95 -21.84 8.49 -21.63 7.97 -21.42 7.39 -21.2 6.75 -20.99 6.03 -20.78 5.25 -20.57 4.4 -20.35 3.49 -20.14 2.51 -19.93 1.47 -19.71 0.39 -19.5 -0.74 -19.29 -1.91 -19.07 -3.1 -18.86 -4.31 -18.65 -5.52 -18.43 -6.72 -18.22 -7.91 -18.01 -9.06 -17.8 -10.17 -17.58 -11.23 -17.37 -12.23 -17.16 -13.15 -16.94 -14.01 -16.73 -14.78 -16.52 -15.47 -16.3 -16.07 -16.09 -16.59 -15.88 -17.02 -15.66 -17.37 -15.45 -17.65 -15.24 -17.85 -15.02 -17.99 -14.81 -18.06 -14.6 -18.07 -14.39 -18.03 -14.17 -17.94 -13.96 -17.81 -13.75 -17.64 -13.53 -17.43 -13.32 -17.19 -13.11 -16.92 -12.89 -16.62 -12.68 -16.29 -12.47 -15.94 -12.25 -15.56 -12.04 -15.17 -11.83 -14.75 -11.61 -14.32 -11.4 -13.87 -11.19 -13.41 -10.98 -12.94 -10.76 -12.47 -10.55 -11.99 -10.34 -11.52 -10.12 -11.05 -9.91 -10.6 -9.7 -10.15 -9.48 -9.73 -9.27 -9.33 -9.06 -8.95 -8.84 -8.61 -8.63 -8.29 -8.42 -8.02 -8.2 -7.79 -7.99 -7.59 -7.78 -7.44 -7.57 -7.34 -7.35 -7.29 -7.14 -7.28 -6.93 -7.32 -6.71 -7.41 -6.5 -7.55 -6.29 -7.73 -6.07 -7.96 -5.86 -8.24 -5.65 -8.55 -5.43 -8.89 -5.22 -9.27 -5.01 -9.67 -4.8 -10.1 -4.58 -10.54 -4.37 -10.99 -4.16 -11.44 -3.94 -11.88 -3.73 -12.32 -3.52 -12.74 -3.3 -13.13 -3.09 -13.49 -2.88 -13.81 -2.66 -14.08 -2.45 -14.3 -2.24 -14.46 -2.02 -14.57 -1.81 -14.6 -1.6 -14.57 -1.39 -14.47 -1.17 -14.3 -0.96 -14.07 -0.75 -13.76 -0.53 -13.4 -0.32 -12.97 -0.11 -12.5 0.11 -11.97 0.32 -11.41 0.53 -10.81 0.75 -10.19 0.96 -9.55 1.17 -8.9 1.39 -8.25 1.6 -7.59 1.81 -6.95 2.02 -6.32 2.24 -5.71 2.45 -5.12 2.66 -4.55 2.88 -4.01 3.09 -3.49 3.3 -3 3.52 -2.54 3.73 -2.11 3.94 -1.7 4.16 -1.31 4.37 -0.95 4.58 -0.61 4.8 -0.28 5.01 0.02 5.22 0.32 5.43 0.59 5.65 0.86 5.86 1.12 6.07 1.37 6.29 1.62 6.5 1.86 6.71 2.1 6.93 2.34 7.14 2.59 7.35 2.84 7.57 3.09 7.78 3.35 7.99 3.61 8.2 3.89 8.42 4.17 8.63 4.45 8.84 4.75 9.06 5.05 9.27 5.35 9.48 5.65 9.7 5.96 9.91 6.26 10.12 6.56 10.34 6.86 10.55 7.14 10.76 7.42 10.98 7.68 11.19 7.93 11.4 8.17 11.61 8.39 11.83 8.59 12.04 8.77 12.25 8.93 12.47 9.08 12.68 9.21 12.89 9.32 13.11 9.41 13.32 9.49 13.53 9.56 13.75 9.61 13.96 9.66 14.17 9.7 14.39 9.73 14.6 9.76 14.81 9.78 15.02 9.81 15.24 9.83 15.45 9.86 15.66 9.89 15.88 9.92 16.09 9.95 16.3 10 16.52 10.04 16.73 10.09 16.94 10.14 17.16 10.2 17.37 10.26 17.58 10.33 17.8 10.39 18.01 10.46 18.22 10.53 18.43 10.6 18.65 10.67 18.86 10.74 19.07 10.8 19.29 10.87 19.5 10.93 19.71 10.99 19.93 11.04 20.14 11.09 20.35 11.14 20.57 11.18 20.78 11.22 20.99 11.25 21.2 11.28 21.42 11.31 21.63 11.33 21.84 11.36 22.06 11.37 22.27 11.39 22.48 11.4 22.7 11.42 22.91 11.43 23.12 11.43 23.34 11.44 23.55 11.45 23.76 11.45 23.98 11.45 24.19 11.46 24.4 11.46 24.61 11.46 24.83 11.46 25.04 11.46 25.25 11.47 25.47 11.47 25.68 11.47 25.89 11.47 26.11 11.47 26.32 11.47 26.53 11.47 26.75 11.47 26.96 11.47 27.17 11.46" class="primitive"/>
            </g>
          </g>
        </g>
      </g>
    </g>
  </g>
  <g class="guide ylabels" font-size="2.82" font-family="'PT Sans Caption','Helvetica Neue','Helvetica',sans-serif" fill="#6C606B" id="img-2535ce8b-40">
    <g transform="translate(119.23,114.18)">
      <g class="primitive">
        <text text-anchor="end" dy="0.35em">0.0</text>
      </g>
    </g>
    <g transform="translate(119.23,107.41)">
      <g class="primitive">
        <text text-anchor="end" dy="0.35em">0.1</text>
      </g>
    </g>
    <g transform="translate(119.23,100.65)">
      <g class="primitive">
        <text text-anchor="end" dy="0.35em">0.2</text>
      </g>
    </g>
    <g transform="translate(119.23,93.88)">
      <g class="primitive">
        <text text-anchor="end" dy="0.35em">0.3</text>
      </g>
    </g>
    <g transform="translate(119.23,87.11)">
      <g class="primitive">
        <text text-anchor="end" dy="0.35em">0.4</text>
      </g>
    </g>
    <g transform="translate(119.23,80.34)">
      <g class="primitive">
        <text text-anchor="end" dy="0.35em">0.5</text>
      </g>
    </g>
  </g>
  <g font-size="3.88" font-family="'PT Sans','Helvetica Neue','Helvetica',sans-serif" fill="#564A55" stroke="#000000" stroke-opacity="0.000" id="img-2535ce8b-41">
    <g transform="translate(110.41,95.26)">
      <g class="primitive">
        <text text-anchor="middle" dy="0.35em" transform="rotate(-90,0, 2)">Density</text>
      </g>
    </g>
  </g>
  <g font-size="3.88" font-family="'PT Sans','Helvetica Neue','Helvetica',sans-serif" fill="#564A55" stroke="#000000" stroke-opacity="0.000" id="img-2535ce8b-42">
    <g transform="translate(159.22,72.73)">
      <g class="primitive">
        <text text-anchor="middle" dy="0.6em">s</text>
      </g>
    </g>
  </g>
</g>
<g class="plotroot xscalable yscalable" id="img-2535ce8b-43">
  <g font-size="3.88" font-family="'PT Sans','Helvetica Neue','Helvetica',sans-serif" fill="#564A55" stroke="#000000" stroke-opacity="0.000" id="img-2535ce8b-44">
    <g transform="translate(57.28,123.85)">
      <g class="primitive">
        <text text-anchor="middle" dy="0.6em">Iteration</text>
      </g>
    </g>
  </g>
  <g class="guide xlabels" font-size="2.82" font-family="'PT Sans Caption','Helvetica Neue','Helvetica',sans-serif" fill="#6C606B" id="img-2535ce8b-45">
    <g transform="translate(19.96,117.18)">
      <g class="primitive">
        <text text-anchor="middle" dy="0.6em">0</text>
      </g>
    </g>
    <g transform="translate(38.62,117.18)">
      <g class="primitive">
        <text text-anchor="middle" dy="0.6em">50</text>
      </g>
    </g>
    <g transform="translate(57.28,117.18)">
      <g class="primitive">
        <text text-anchor="middle" dy="0.6em">100</text>
      </g>
    </g>
    <g transform="translate(75.94,117.18)">
      <g class="primitive">
        <text text-anchor="middle" dy="0.6em">150</text>
      </g>
    </g>
    <g transform="translate(94.6,117.18)">
      <g class="primitive">
        <text text-anchor="middle" dy="0.6em">200</text>
      </g>
    </g>
  </g>
  <g clip-path="url(#img-2535ce8b-46)">
    <g id="img-2535ce8b-47">
      <g pointer-events="visible" opacity="1" fill="#000000" fill-opacity="0.000" stroke="#000000" stroke-opacity="0.000" class="guide background" id="img-2535ce8b-48">
        <g transform="translate(57.28,97.26)">
          <path d="M-39.32,-18.92 L 39.32 -18.92 39.32 18.92 -39.32 18.92 z" class="primitive"/>
        </g>
      </g>
      <g class="guide ygridlines xfixed" stroke-dasharray="0.5,0.5" stroke-width="0.2" stroke="#D0D0E0" id="img-2535ce8b-49">
        <g transform="translate(57.28,114.18)">
          <path fill="none" d="M-39.32,0 L 39.32 0" class="primitive"/>
        </g>
        <g transform="translate(57.28,102.9)">
          <path fill="none" d="M-39.32,0 L 39.32 0" class="primitive"/>
        </g>
        <g transform="translate(57.28,91.62)">
          <path fill="none" d="M-39.32,0 L 39.32 0" class="primitive"/>
        </g>
        <g transform="translate(57.28,80.34)">
          <path fill="none" d="M-39.32,0 L 39.32 0" class="primitive"/>
        </g>
      </g>
      <g class="guide xgridlines yfixed" stroke-dasharray="0.5,0.5" stroke-width="0.2" stroke="#D0D0E0" id="img-2535ce8b-50">
        <g transform="translate(19.96,97.26)">
          <path fill="none" d="M0,-18.92 L 0 18.92" class="primitive"/>
        </g>
        <g transform="translate(38.62,97.26)">
          <path fill="none" d="M0,-18.92 L 0 18.92" class="primitive"/>
        </g>
        <g transform="translate(57.28,97.26)">
          <path fill="none" d="M0,-18.92 L 0 18.92" class="primitive"/>
        </g>
        <g transform="translate(75.94,97.26)">
          <path fill="none" d="M0,-18.92 L 0 18.92" class="primitive"/>
        </g>
        <g transform="translate(94.6,97.26)">
          <path fill="none" d="M0,-18.92 L 0 18.92" class="primitive"/>
        </g>
      </g>
      <g class="plotpanel" id="img-2535ce8b-51">
        <metadata>
          <boundingbox value="17.95833333333333mm 78.34499999999998mm 78.64166666666667mm 37.83666666666666mm"/>
          <unitbox value="-5.358937144133081 15.88661215643779 210.7178742882662 -16.773224312875577"/>
        </metadata>
        <g stroke-width="0.3" fill="#000000" fill-opacity="0.000" class="geometry" id="img-2535ce8b-52">
          <g class="color_1" stroke-dasharray="none" stroke="#00BFFF" id="img-2535ce8b-53">
            <g transform="translate(57.47,110.42)">
              <path fill="none" d="M-37.13,2.68 L -36.76 -0.46 -36.39 0.25 -36.01 -1.59 -35.64 -0.46 -35.27 2.79 -34.89 1.75 -34.52 2.79 -34.15 -0.31 -33.78 2.79 -33.4 -0.86 -33.03 2.79 -32.66 -3.28 -32.28 2.79 -31.91 -0.97 -31.54 2.79 -31.16 0.38 -30.79 2.79 -30.42 -1.35 -30.04 2.79 -29.67 1.21 -29.3 2.79 -28.92 2.34 -28.55 2.79 -28.18 0.37 -27.8 2.79 -27.43 2.28 -27.06 2.79 -26.68 1.02 -26.31 2.79 -25.94 2.13 -25.56 2.79 -25.19 -0.43 -24.82 2.79 -24.45 1.15 -24.07 2.79 -23.7 2.07 -23.33 2.79 -22.95 2.41 -22.58 2.79 -22.21 -5.09 -21.83 2.79 -21.46 -2.93 -21.09 2.79 -20.71 1.32 -20.34 2.79 -19.97 1.32 -19.59 2.79 -19.22 1.64 -18.85 2.79 -18.47 1.39 -18.1 2.79 -17.73 -2.91 -17.35 2.79 -16.98 -2.32 -16.61 2.79 -16.23 0.29 -15.86 2.79 -15.49 -0.61 -15.11 2.79 -14.74 1.08 -14.37 2.79 -14 1.65 -13.62 2.79 -13.25 1.65 -12.88 2.79 -12.5 0.99 -12.13 2.79 -11.76 0.99 -11.38 2.79 -11.01 -2.69 -10.64 2.79 -10.26 1.61 -9.89 2.79 -9.52 -1.59 -9.14 -3.36 -8.77 1.84 -8.4 -3.36 -8.02 0.9 -7.65 -3.36 -7.28 2.03 -6.9 -3.36 -6.53 0.34 -6.16 -3.36 -5.78 0.89 -5.41 -0.41 -5.04 -0.73 -4.67 -0.41 -4.29 2.05 -3.92 -0.41 -3.55 1.5 -3.17 -0.41 -2.8 -10.32 -2.43 -0.41 -2.05 -1.08 -1.68 -0.41 -1.31 -3.36 -0.93 -0.41 -0.56 2.82 -0.19 -0.41 0.19 1.16 0.56 -1.11 0.93 -1.36 1.31 -1.11 1.68 2.09 2.05 -1.11 2.43 1.85 2.8 -1.11 3.17 0.77 3.55 -1.11 3.92 -0.41 4.29 -2.18 4.67 -0.41 5.04 -2.18 5.41 1.77 5.78 -2.18 6.16 0.32 6.53 -2.18 6.9 -3.97 7.28 -2.18 7.65 2.79 8.02 -2.18 8.4 1.44 8.77 -2.18 9.14 -0.4 9.52 -2.18 9.89 1.87 10.26 -2.18 10.64 -6.71 11.01 -2.18 11.38 -8.35 11.76 -2.18 12.13 -1.39 12.5 -1.11 12.88 -18.84 13.25 -1.11 13.62 -4.94 14 -1.11 14.37 0.03 14.74 -1.11 15.11 -2.89 15.49 -1.11 15.86 -2.89 16.23 -1.11 16.61 1.69 16.98 -1.11 17.35 -0.62 17.73 1.98 18.1 1.35 18.47 1.98 18.85 0.6 19.22 1.98 19.59 -1.52 19.97 1.98 20.34 -2.18 20.71 -0.18 21.09 -5.44 21.46 -0.18 21.83 2.28 22.21 -0.18 22.58 -0.38 22.95 -1.11 23.33 2.43 23.7 -1.11 24.07 0.85 24.45 -1.11 24.82 0.66 25.19 -1.11 25.56 0.66 25.94 -1.11 26.31 -16.08 26.68 -1.11 27.06 -0.18 27.43 -1.11 27.8 1.87 28.18 -1.11 28.55 1.84 28.92 -1.11 29.3 1.84 29.67 -1.11 30.04 0.4 30.42 -1.11 30.79 0.68 31.16 -1.11 31.54 1.16 31.91 -1.11 32.28 1.57 32.66 -1.11 33.03 1.57 33.4 1.98 33.78 -1.61 34.15 1.66 34.52 0.3 34.89 1.66 35.27 1.98 35.64 1.66 36.01 0.66 36.39 1.66 36.76 -3.4 37.13 1.66" class="primitive"/>
            </g>
          </g>
        </g>
      </g>
    </g>
  </g>
  <g class="guide ylabels" font-size="2.82" font-family="'PT Sans Caption','Helvetica Neue','Helvetica',sans-serif" fill="#6C606B" id="img-2535ce8b-54">
    <g transform="translate(16.96,114.18)">
      <g class="primitive">
        <text text-anchor="end" dy="0.35em">0</text>
      </g>
    </g>
    <g transform="translate(16.96,102.9)">
      <g class="primitive">
        <text text-anchor="end" dy="0.35em">5</text>
      </g>
    </g>
    <g transform="translate(16.96,91.62)">
      <g class="primitive">
        <text text-anchor="end" dy="0.35em">10</text>
      </g>
    </g>
    <g transform="translate(16.96,80.34)">
      <g class="primitive">
        <text text-anchor="end" dy="0.35em">15</text>
      </g>
    </g>
  </g>
  <g font-size="3.88" font-family="'PT Sans','Helvetica Neue','Helvetica',sans-serif" fill="#564A55" stroke="#000000" stroke-opacity="0.000" id="img-2535ce8b-55">
    <g transform="translate(8.81,95.26)">
      <g class="primitive">
        <text text-anchor="middle" dy="0.35em" transform="rotate(-90,0, 2)">Value</text>
      </g>
    </g>
  </g>
  <g font-size="3.88" font-family="'PT Sans','Helvetica Neue','Helvetica',sans-serif" fill="#564A55" stroke="#000000" stroke-opacity="0.000" id="img-2535ce8b-56">
    <g transform="translate(57.28,72.73)">
      <g class="primitive">
        <text text-anchor="middle" dy="0.6em">s</text>
      </g>
    </g>
  </g>
</g>
<g class="plotroot xscalable yscalable" id="img-2535ce8b-57">
  <g font-size="3.88" font-family="'PT Sans','Helvetica Neue','Helvetica',sans-serif" fill="#564A55" stroke="#000000" stroke-opacity="0.000" id="img-2535ce8b-58">
    <g transform="translate(159.22,56.12)">
      <g class="primitive">
        <text text-anchor="middle" dy="0.6em">Value</text>
      </g>
    </g>
  </g>
  <g class="guide xlabels" font-size="2.82" font-family="'PT Sans Caption','Helvetica Neue','Helvetica',sans-serif" fill="#6C606B" id="img-2535ce8b-59">
    <g transform="translate(122.23,49.45)">
      <g class="primitive">
        <text text-anchor="middle" dy="0.6em">-1</text>
      </g>
    </g>
    <g transform="translate(140.72,49.45)">
      <g class="primitive">
        <text text-anchor="middle" dy="0.6em">0</text>
      </g>
    </g>
    <g transform="translate(159.22,49.45)">
      <g class="primitive">
        <text text-anchor="middle" dy="0.6em">1</text>
      </g>
    </g>
    <g transform="translate(177.71,49.45)">
      <g class="primitive">
        <text text-anchor="middle" dy="0.6em">2</text>
      </g>
    </g>
    <g transform="translate(196.2,49.45)">
      <g class="primitive">
        <text text-anchor="middle" dy="0.6em">3</text>
      </g>
    </g>
  </g>
  <g clip-path="url(#img-2535ce8b-60)">
    <g id="img-2535ce8b-61">
      <g pointer-events="visible" opacity="1" fill="#000000" fill-opacity="0.000" stroke="#000000" stroke-opacity="0.000" class="guide background" id="img-2535ce8b-62">
        <g transform="translate(159.22,29.53)">
          <path d="M-38.98,-18.92 L 38.98 -18.92 38.98 18.92 -38.98 18.92 z" class="primitive"/>
        </g>
      </g>
      <g class="guide ygridlines xfixed" stroke-dasharray="0.5,0.5" stroke-width="0.2" stroke="#D0D0E0" id="img-2535ce8b-63">
        <g transform="translate(159.22,46.45)">
          <path fill="none" d="M-38.98,0 L 38.98 0" class="primitive"/>
        </g>
        <g transform="translate(159.22,35.17)">
          <path fill="none" d="M-38.98,0 L 38.98 0" class="primitive"/>
        </g>
        <g transform="translate(159.22,23.89)">
          <path fill="none" d="M-38.98,0 L 38.98 0" class="primitive"/>
        </g>
        <g transform="translate(159.22,12.61)">
          <path fill="none" d="M-38.98,0 L 38.98 0" class="primitive"/>
        </g>
      </g>
      <g class="guide xgridlines yfixed" stroke-dasharray="0.5,0.5" stroke-width="0.2" stroke="#D0D0E0" id="img-2535ce8b-64">
        <g transform="translate(122.23,29.53)">
          <path fill="none" d="M0,-18.92 L 0 18.92" class="primitive"/>
        </g>
        <g transform="translate(140.72,29.53)">
          <path fill="none" d="M0,-18.92 L 0 18.92" class="primitive"/>
        </g>
        <g transform="translate(159.22,29.53)">
          <path fill="none" d="M0,-18.92 L 0 18.92" class="primitive"/>
        </g>
        <g transform="translate(177.71,29.53)">
          <path fill="none" d="M0,-18.92 L 0 18.92" class="primitive"/>
        </g>
        <g transform="translate(196.2,29.53)">
          <path fill="none" d="M0,-18.92 L 0 18.92" class="primitive"/>
        </g>
      </g>
      <g class="plotpanel" id="img-2535ce8b-65">
        <metadata>
          <boundingbox value="120.23166666666665mm 10.611666666666665mm 77.96833333333333mm 37.83666666666666mm"/>
          <unitbox value="-1.108154390392285 1.588661215643779 4.21630878078457 -1.6773224312875579"/>
        </metadata>
        <g stroke-width="0.3" fill="#000000" fill-opacity="0.000" class="geometry" id="img-2535ce8b-66">
          <g class="color_1" stroke-dasharray="none" stroke="#00BFFF" id="img-2535ce8b-67">
            <g transform="translate(162.21,39.06)">
              <path fill="none" d="M-28.12,7.39 L -27.9 7.39 -27.68 7.39 -27.46 7.39 -27.24 7.39 -27.01 7.38 -26.79 7.38 -26.57 7.38 -26.35 7.38 -26.13 7.37 -25.91 7.37 -25.69 7.36 -25.47 7.35 -25.25 7.33 -25.03 7.31 -24.81 7.29 -24.59 7.26 -24.37 7.22 -24.15 7.18 -23.93 7.12 -23.71 7.06 -23.49 6.98 -23.27 6.89 -23.05 6.78 -22.82 6.65 -22.6 6.51 -22.38 6.35 -22.16 6.18 -21.94 5.98 -21.72 5.77 -21.5 5.54 -21.28 5.29 -21.06 5.04 -20.84 4.77 -20.62 4.5 -20.4 4.23 -20.18 3.96 -19.96 3.69 -19.74 3.44 -19.52 3.19 -19.3 2.97 -19.08 2.77 -18.86 2.59 -18.63 2.43 -18.41 2.3 -18.19 2.19 -17.97 2.11 -17.75 2.05 -17.53 2 -17.31 1.98 -17.09 1.97 -16.87 1.96 -16.65 1.97 -16.43 1.97 -16.21 1.98 -15.99 1.99 -15.77 1.99 -15.55 1.98 -15.33 1.97 -15.11 1.96 -14.89 1.93 -14.67 1.9 -14.44 1.87 -14.22 1.82 -14 1.78 -13.78 1.72 -13.56 1.66 -13.34 1.59 -13.12 1.52 -12.9 1.43 -12.68 1.33 -12.46 1.21 -12.24 1.08 -12.02 0.92 -11.8 0.75 -11.58 0.56 -11.36 0.34 -11.14 0.11 -10.92 -0.14 -10.7 -0.4 -10.48 -0.68 -10.25 -0.96 -10.03 -1.23 -9.81 -1.51 -9.59 -1.77 -9.37 -2.02 -9.15 -2.25 -8.93 -2.47 -8.71 -2.66 -8.49 -2.84 -8.27 -3 -8.05 -3.15 -7.83 -3.3 -7.61 -3.46 -7.39 -3.64 -7.17 -3.84 -6.95 -4.08 -6.73 -4.36 -6.51 -4.7 -6.29 -5.1 -6.06 -5.57 -5.84 -6.11 -5.62 -6.72 -5.4 -7.39 -5.18 -8.13 -4.96 -8.91 -4.74 -9.74 -4.52 -10.59 -4.3 -11.45 -4.08 -12.31 -3.86 -13.13 -3.64 -13.92 -3.42 -14.64 -3.2 -15.29 -2.98 -15.86 -2.76 -16.33 -2.54 -16.71 -2.32 -16.98 -2.1 -17.16 -1.87 -17.24 -1.65 -17.24 -1.43 -17.16 -1.21 -17.03 -0.99 -16.84 -0.77 -16.61 -0.55 -16.36 -0.33 -16.09 -0.11 -15.82 0.11 -15.54 0.33 -15.27 0.55 -15 0.77 -14.74 0.99 -14.47 1.21 -14.2 1.43 -13.92 1.65 -13.64 1.87 -13.33 2.1 -13 2.32 -12.66 2.54 -12.29 2.76 -11.9 2.98 -11.49 3.2 -11.06 3.42 -10.63 3.64 -10.18 3.86 -9.74 4.08 -9.3 4.3 -8.87 4.52 -8.44 4.74 -8.04 4.96 -7.64 5.18 -7.27 5.4 -6.91 5.62 -6.57 5.84 -6.24 6.06 -5.91 6.29 -5.6 6.51 -5.28 6.73 -4.97 6.95 -4.65 7.17 -4.33 7.39 -3.99 7.61 -3.65 7.83 -3.3 8.05 -2.94 8.27 -2.58 8.49 -2.21 8.71 -1.84 8.93 -1.47 9.15 -1.1 9.37 -0.74 9.59 -0.4 9.81 -0.06 10.03 0.26 10.25 0.56 10.48 0.85 10.7 1.12 10.92 1.37 11.14 1.61 11.36 1.84 11.58 2.06 11.8 2.26 12.02 2.46 12.24 2.65 12.46 2.84 12.68 3.02 12.9 3.21 13.12 3.39 13.34 3.57 13.56 3.75 13.78 3.93 14 4.11 14.22 4.29 14.44 4.46 14.67 4.64 14.89 4.8 15.11 4.96 15.33 5.11 15.55 5.26 15.77 5.4 15.99 5.52 16.21 5.64 16.43 5.75 16.65 5.85 16.87 5.94 17.09 6.02 17.31 6.1 17.53 6.17 17.75 6.23 17.97 6.29 18.19 6.34 18.41 6.39 18.63 6.44 18.86 6.49 19.08 6.53 19.3 6.58 19.52 6.63 19.74 6.67 19.96 6.72 20.18 6.77 20.4 6.82 20.62 6.87 20.84 6.91 21.06 6.96 21.28 7 21.5 7.05 21.72 7.09 21.94 7.12 22.16 7.16 22.38 7.19 22.6 7.22 22.82 7.25 23.05 7.27 23.27 7.29 23.49 7.31 23.71 7.32 23.93 7.34 24.15 7.35 24.37 7.36 24.59 7.36 24.81 7.37 25.03 7.37 25.25 7.38 25.47 7.38 25.69 7.38 25.91 7.38 26.13 7.39 26.35 7.39 26.57 7.39 26.79 7.39 27.01 7.39 27.24 7.39 27.46 7.39 27.68 7.39 27.9 7.39 28.12 7.39" class="primitive"/>
            </g>
          </g>
        </g>
      </g>
    </g>
  </g>
  <g class="guide ylabels" font-size="2.82" font-family="'PT Sans Caption','Helvetica Neue','Helvetica',sans-serif" fill="#6C606B" id="img-2535ce8b-68">
    <g transform="translate(119.23,46.45)">
      <g class="primitive">
        <text text-anchor="end" dy="0.35em">0.0</text>
      </g>
    </g>
    <g transform="translate(119.23,35.17)">
      <g class="primitive">
        <text text-anchor="end" dy="0.35em">0.5</text>
      </g>
    </g>
    <g transform="translate(119.23,23.89)">
      <g class="primitive">
        <text text-anchor="end" dy="0.35em">1.0</text>
      </g>
    </g>
    <g transform="translate(119.23,12.61)">
      <g class="primitive">
        <text text-anchor="end" dy="0.35em">1.5</text>
      </g>
    </g>
  </g>
  <g font-size="3.88" font-family="'PT Sans','Helvetica Neue','Helvetica',sans-serif" fill="#564A55" stroke="#000000" stroke-opacity="0.000" id="img-2535ce8b-69">
    <g transform="translate(110.41,27.53)">
      <g class="primitive">
        <text text-anchor="middle" dy="0.35em" transform="rotate(-90,0, 2)">Density</text>
      </g>
    </g>
  </g>
  <g font-size="3.88" font-family="'PT Sans','Helvetica Neue','Helvetica',sans-serif" fill="#564A55" stroke="#000000" stroke-opacity="0.000" id="img-2535ce8b-70">
    <g transform="translate(159.22,5)">
      <g class="primitive">
        <text text-anchor="middle" dy="0.6em">m</text>
      </g>
    </g>
  </g>
</g>
<g class="plotroot xscalable yscalable" id="img-2535ce8b-71">
  <g font-size="3.88" font-family="'PT Sans','Helvetica Neue','Helvetica',sans-serif" fill="#564A55" stroke="#000000" stroke-opacity="0.000" id="img-2535ce8b-72">
    <g transform="translate(57,56.12)">
      <g class="primitive">
        <text text-anchor="middle" dy="0.6em">Iteration</text>
      </g>
    </g>
  </g>
  <g class="guide xlabels" font-size="2.82" font-family="'PT Sans Caption','Helvetica Neue','Helvetica',sans-serif" fill="#6C606B" id="img-2535ce8b-73">
    <g transform="translate(19.4,49.45)">
      <g class="primitive">
        <text text-anchor="middle" dy="0.6em">0</text>
      </g>
    </g>
    <g transform="translate(38.2,49.45)">
      <g class="primitive">
        <text text-anchor="middle" dy="0.6em">50</text>
      </g>
    </g>
    <g transform="translate(57,49.45)">
      <g class="primitive">
        <text text-anchor="middle" dy="0.6em">100</text>
      </g>
    </g>
    <g transform="translate(75.8,49.45)">
      <g class="primitive">
        <text text-anchor="middle" dy="0.6em">150</text>
      </g>
    </g>
    <g transform="translate(94.6,49.45)">
      <g class="primitive">
        <text text-anchor="middle" dy="0.6em">200</text>
      </g>
    </g>
  </g>
  <g clip-path="url(#img-2535ce8b-74)">
    <g id="img-2535ce8b-75">
      <g pointer-events="visible" opacity="1" fill="#000000" fill-opacity="0.000" stroke="#000000" stroke-opacity="0.000" class="guide background" id="img-2535ce8b-76">
        <g transform="translate(57,29.53)">
          <path d="M-39.6,-18.92 L 39.6 -18.92 39.6 18.92 -39.6 18.92 z" class="primitive"/>
        </g>
      </g>
      <g class="guide ygridlines xfixed" stroke-dasharray="0.5,0.5" stroke-width="0.2" stroke="#D0D0E0" id="img-2535ce8b-77">
        <g transform="translate(57,46.45)">
          <path fill="none" d="M-39.6,0 L 39.6 0" class="primitive"/>
        </g>
        <g transform="translate(57,40.81)">
          <path fill="none" d="M-39.6,0 L 39.6 0" class="primitive"/>
        </g>
        <g transform="translate(57,35.17)">
          <path fill="none" d="M-39.6,0 L 39.6 0" class="primitive"/>
        </g>
        <g transform="translate(57,29.53)">
          <path fill="none" d="M-39.6,0 L 39.6 0" class="primitive"/>
        </g>
        <g transform="translate(57,23.89)">
          <path fill="none" d="M-39.6,0 L 39.6 0" class="primitive"/>
        </g>
        <g transform="translate(57,18.25)">
          <path fill="none" d="M-39.6,0 L 39.6 0" class="primitive"/>
        </g>
        <g transform="translate(57,12.61)">
          <path fill="none" d="M-39.6,0 L 39.6 0" class="primitive"/>
        </g>
      </g>
      <g class="guide xgridlines yfixed" stroke-dasharray="0.5,0.5" stroke-width="0.2" stroke="#D0D0E0" id="img-2535ce8b-78">
        <g transform="translate(19.4,29.53)">
          <path fill="none" d="M0,-18.92 L 0 18.92" class="primitive"/>
        </g>
        <g transform="translate(38.2,29.53)">
          <path fill="none" d="M0,-18.92 L 0 18.92" class="primitive"/>
        </g>
        <g transform="translate(57,29.53)">
          <path fill="none" d="M0,-18.92 L 0 18.92" class="primitive"/>
        </g>
        <g transform="translate(75.8,29.53)">
          <path fill="none" d="M0,-18.92 L 0 18.92" class="primitive"/>
        </g>
        <g transform="translate(94.6,29.53)">
          <path fill="none" d="M0,-18.92 L 0 18.92" class="primitive"/>
        </g>
      </g>
      <g class="plotpanel" id="img-2535ce8b-79">
        <metadata>
          <boundingbox value="17.398333333333326mm 10.611666666666665mm 79.20166666666665mm 37.83666666666666mm"/>
          <unitbox value="-5.319031049843754 5.354644862575116 210.6380620996875 -6.7092897251502315"/>
        </metadata>
        <g stroke-width="0.3" fill="#000000" fill-opacity="0.000" class="geometry" id="img-2535ce8b-80">
          <g class="color_1" stroke-dasharray="none" stroke="#00BFFF" id="img-2535ce8b-81">
            <g transform="translate(57.19,34.47)">
              <path fill="none" d="M-37.41,-1.8 L -37.04 2.14 -36.66 -1.32 -36.28 -0.84 -35.91 2.14 -35.53 0.45 -35.16 3.45 -34.78 0.45 -34.4 9.52 -34.03 0.45 -33.65 -4.39 -33.28 0.45 -32.9 0.42 -32.52 0.45 -32.15 4.4 -31.77 0.45 -31.4 -1.18 -31.02 0.45 -30.64 3.98 -30.27 0.45 -29.89 -1.77 -29.52 0.45 -29.14 3.35 -28.76 0.45 -28.39 -0.05 -28.01 0.45 -27.64 0.38 -27.26 0.45 -26.88 -1.56 -26.51 0.45 -26.13 1.75 -25.76 0.45 -25.38 2.55 -25 0.45 -24.63 -2.8 -24.25 0.45 -23.88 -0.95 -23.5 0.45 -23.12 -3.43 -22.75 0.45 -22.37 -6.14 -22 0.45 -21.62 4.05 -21.24 0.45 -20.87 -1.45 -20.49 0.45 -20.12 -1.45 -19.74 0.45 -19.36 -1.36 -18.99 0.45 -18.61 1.31 -18.24 0.45 -17.86 2.56 -17.48 0.45 -17.11 4.07 -16.73 0.45 -16.36 -2.41 -15.98 0.45 -15.6 -15.87 -15.23 0.45 -14.85 -7.33 -14.48 0.45 -14.1 -1.63 -13.72 0.45 -13.35 -1.63 -12.97 0.45 -12.6 -2.34 -12.22 0.45 -11.84 -2.34 -11.47 0.45 -11.09 4.25 -10.72 0.45 -10.34 -1.07 -9.96 0.45 -9.59 -0.84 -9.21 -2.61 -8.84 -3.65 -8.46 -2.61 -8.08 3.1 -7.71 -2.61 -7.33 4.05 -6.96 -2.61 -6.58 -1.32 -6.2 -2.61 -5.83 -1.77 -5.45 2.43 -5.08 -2.7 -4.7 2.43 -4.32 -3.68 -3.95 2.43 -3.57 -3.14 -3.2 2.43 -2.82 0.97 -2.44 2.43 -2.07 -2.79 -1.69 2.43 -1.32 -2.61 -0.94 2.43 -0.56 0.22 -0.19 2.43 0.19 -2.46 0.56 -0.64 0.94 -4.48 1.32 -0.64 1.69 -1.36 2.07 -0.64 2.44 2.59 2.82 -0.64 3.2 -3.79 3.57 -0.64 3.95 2.43 4.32 1.02 4.7 2.43 5.08 1.02 5.45 1.99 5.83 1.02 6.2 1.72 6.58 1.02 6.96 3.69 7.33 1.02 7.71 0.45 8.08 1.02 8.46 -4.78 8.84 1.02 9.21 -1.27 9.59 1.02 9.96 -1.76 10.34 1.02 10.72 5.12 11.09 1.02 11.47 5.55 11.84 1.02 12.22 6.01 12.6 -0.64 12.97 -17.99 13.35 -0.64 13.72 6.02 14.1 -0.64 14.48 -8.04 14.85 -0.64 15.23 -3.87 15.6 -0.64 15.98 -3.87 16.36 -0.64 16.73 2.18 17.11 -0.64 17.48 0.92 17.86 5.21 18.24 -0.06 18.61 5.21 18.99 3.15 19.36 5.21 19.74 -2.91 20.12 5.21 20.49 1.02 20.87 5.71 21.24 1.42 21.62 5.71 22 -0.7 22.37 5.71 22.75 -5.59 23.12 -0.64 23.5 -4.44 23.88 -0.64 24.25 -3.7 24.63 -0.64 25 -1.36 25.38 -0.64 25.76 -1.36 26.13 -0.64 26.51 -17.78 26.88 -0.64 27.26 5.71 27.64 -0.64 28.01 3.79 28.39 -0.64 28.76 -1.03 29.14 -0.64 29.52 -1.03 29.89 -0.64 30.27 0.36 30.64 -0.64 31.02 2.44 31.4 -0.64 31.77 0.98 32.15 -0.64 32.52 -2.21 32.9 -0.64 33.28 -2.21 33.65 5.21 34.03 4.46 34.4 -2.12 34.78 1.81 35.16 -2.12 35.53 5.21 35.91 -2.12 36.28 3.75 36.66 -2.12 37.04 2.48 37.41 -2.12" class="primitive"/>
            </g>
          </g>
        </g>
      </g>
    </g>
  </g>
  <g class="guide ylabels" font-size="2.82" font-family="'PT Sans Caption','Helvetica Neue','Helvetica',sans-serif" fill="#6C606B" id="img-2535ce8b-82">
    <g transform="translate(16.4,46.45)">
      <g class="primitive">
        <text text-anchor="end" dy="0.35em">-1</text>
      </g>
    </g>
    <g transform="translate(16.4,40.81)">
      <g class="primitive">
        <text text-anchor="end" dy="0.35em">0</text>
      </g>
    </g>
    <g transform="translate(16.4,35.17)">
      <g class="primitive">
        <text text-anchor="end" dy="0.35em">1</text>
      </g>
    </g>
    <g transform="translate(16.4,29.53)">
      <g class="primitive">
        <text text-anchor="end" dy="0.35em">2</text>
      </g>
    </g>
    <g transform="translate(16.4,23.89)">
      <g class="primitive">
        <text text-anchor="end" dy="0.35em">3</text>
      </g>
    </g>
    <g transform="translate(16.4,18.25)">
      <g class="primitive">
        <text text-anchor="end" dy="0.35em">4</text>
      </g>
    </g>
    <g transform="translate(16.4,12.61)">
      <g class="primitive">
        <text text-anchor="end" dy="0.35em">5</text>
      </g>
    </g>
  </g>
  <g font-size="3.88" font-family="'PT Sans','Helvetica Neue','Helvetica',sans-serif" fill="#564A55" stroke="#000000" stroke-opacity="0.000" id="img-2535ce8b-83">
    <g transform="translate(8.81,27.53)">
      <g class="primitive">
        <text text-anchor="middle" dy="0.35em" transform="rotate(-90,0, 2)">Value</text>
      </g>
    </g>
  </g>
  <g font-size="3.88" font-family="'PT Sans','Helvetica Neue','Helvetica',sans-serif" fill="#564A55" stroke="#000000" stroke-opacity="0.000" id="img-2535ce8b-84">
    <g transform="translate(57,5)">
      <g class="primitive">
        <text text-anchor="middle" dy="0.6em">m</text>
      </g>
    </g>
  </g>
</g>
<defs>
  <clipPath id="img-2535ce8b-4">
    <path d="M120.23,146.08 L 198.2 146.08 198.2 183.91 120.23 183.91" />
  </clipPath>
  <clipPath id="img-2535ce8b-18">
    <path d="M16.28,146.08 L 96.6 146.08 96.6 183.91 16.28 183.91" />
  </clipPath>
  <clipPath id="img-2535ce8b-32">
    <path d="M120.23,78.34 L 198.2 78.34 198.2 116.18 120.23 116.18" />
  </clipPath>
  <clipPath id="img-2535ce8b-46">
    <path d="M17.96,78.34 L 96.6 78.34 96.6 116.18 17.96 116.18" />
  </clipPath>
  <clipPath id="img-2535ce8b-60">
    <path d="M120.23,10.61 L 198.2 10.61 198.2 48.45 120.23 48.45" />
  </clipPath>
  <clipPath id="img-2535ce8b-74">
    <path d="M17.4,10.61 L 96.6 10.61 96.6 48.45 17.4 48.45" />
  </clipPath>
</defs>
</svg>
